<svg xmlns="http://www.w3.org/2000/svg" width="284" height="64" xml:space="preserve"><rect width="140" height="25" fill="transparent"/><g><path style="stroke:none;stroke-width:1;stroke-dasharray:none;stroke-linecap:butt;stroke-dashoffset:0;stroke-linejoin:miter;stroke-miterlimit:4;fill:#ffffff;fill-rule:nonzero;opacity:1" vector-effect="non-scaling-stroke" transform="matrix(1.24 0 0 1.24 -34.992 -55.614)" d="M56.5 84.7v7.1c-2.6 1.1-5.7 1.6-8.8 1.6C41.3 93.4 37 89 37 82.5V65.2h-5.7v-7.4H37v-9.7h8.8v9.7H56v7.4H45.7v15.4c0 3.1 1.9 5.2 4.8 5.2 2 0 4-.3 6-1.1zM93.5 71.4v21.8H85l-.2-4.9c-2.3 3.1-6.3 5.1-10.6 5.1-7.2 0-12.1-4.3-12.1-10.7 0-6.7 5.9-11 14.8-11 2.4 0 5 .3 7.7.8v-.6c0-4.6-3.1-7.4-8.4-7.4-3.3 0-5.9 1-8.1 2.8L64.4 62c3.7-3 8.1-4.5 14.2-4.5 8.9 0 14.9 5.3 14.9 13.9zm-8.8 6.9c-2.3-.4-4.6-.7-6.6-.7-4.1 0-6.8 1.9-6.8 4.9 0 2.8 1.9 4.7 5.4 4.7 4.2 0 8-3.2 8-8.9zM155 58.1h8.8v35.1H155V58.1zM155 48.2h8.8v5.1H155v-5.1zM169.5 75.5c0-10.7 7.5-17.9 18.7-17.9 4.6 0 8.7 1.5 11.9 4l-5 5.9c-1.8-1.5-3.9-2.4-6.8-2.4-5.8 0-9.7 4.2-9.7 10.5s3.9 10.5 9.8 10.5c3.2 0 5.9-1 7.9-3.1l5 5.8c-3.3 3.3-8 4.8-13.2 4.8-11.1-.1-18.6-7.3-18.6-18.1z"/><path style="stroke:none;stroke-width:1;stroke-dasharray:none;stroke-linecap:butt;stroke-dashoffset:0;stroke-linejoin:miter;stroke-miterlimit:4;fill:#ffffff;fill-rule:nonzero;opacity:1" vector-effect="non-scaling-stroke" transform="matrix(1.24 0 0 1.24 -34.992 -55.626)" d="M237.8 71v22.2h-8.4l-.2-5.4c-2.3 3.6-6.3 5.6-10.6 5.6-7.2 0-12.1-4.3-12.1-10.7 0-6.7 5.9-11 14.8-11 2.4 0 5 .3 7.7.8v-.6c0-4.6-3.1-7.4-8.4-7.4-3.3 0-5.9 1-8.1 2.8l-3.8-5.1c3.7-3 8.1-4.5 14.2-4.5 8.9-.2 14.9 5.1 14.9 13.3zm-8.8 7.3c-2.3-.4-4.6-.7-6.6-.7-4.1 0-6.8 1.9-6.8 4.9 0 2.8 1.9 4.7 5.4 4.7 4.1 0 8-3.2 8-8.9z"/><path style="stroke:none;stroke-width:1;stroke-dasharray:none;stroke-linecap:butt;stroke-dashoffset:0;stroke-linejoin:miter;stroke-miterlimit:4;fill:#ffffff;fill-rule:nonzero;opacity:1" vector-effect="non-scaling-stroke" transform="matrix(1.24 0 0 1.24 -34.992 -55.614)" d="M243.5 48.2h8.8v45h-8.8v-45z"/><path style="stroke:none;stroke-width:1;stroke-dasharray:none;stroke-linecap:butt;stroke-dashoffset:0;stroke-linejoin:miter;stroke-miterlimit:4;fill:#ffffff;fill-rule:nonzero;opacity:1" vector-effect="non-scaling-stroke" d="m6.6 14.35-.3-28.7L-6.6-.65z" transform="matrix(1.24 0 0 1.24 111.204 37.2)"/><path style="stroke:none;stroke-width:1;stroke-dasharray:none;stroke-linecap:butt;stroke-dashoffset:0;stroke-linejoin:miter;stroke-miterlimit:4;fill:#ffffff;fill-rule:nonzero;opacity:1" vector-effect="non-scaling-stroke" d="M-4.4 6.45 7-6.45H-7v12.9z" transform="matrix(1.24 0 0 1.24 97.936 24.056)"/><path style="stroke:none;stroke-width:1;stroke-dasharray:none;stroke-linecap:butt;stroke-dashoffset:0;stroke-linejoin:miter;stroke-miterlimit:4;fill:#ffffff;fill-rule:nonzero;opacity:1" vector-effect="non-scaling-stroke" d="M-5.15-7.6h-2.4V7.6h15.1z" transform="matrix(1.24 0 0 1.24 100.478 50.406)"/><path style="stroke:none;stroke-width:1;stroke-dasharray:none;stroke-linecap:butt;stroke-dashoffset:0;stroke-linejoin:miter;stroke-miterlimit:4;fill:#ffffff;fill-rule:nonzero;opacity:1" vector-effect="non-scaling-stroke" transform="matrix(1.24 0 0 1.24 -34.992 -55.614)" d="M143.4 85.8c-2.8 0-4.8-2.1-4.8-5.2V65.2h10.3v-7.4h-10.3v-9.7h-8.8v9.7h-3.2l-2.5 2.7v4.7h5.7v17.2c0 6.5 4.3 10.9 10.7 10.9 3.1 0 6.2-.5 8.8-1.6v-7.1c-1.9.9-3.9 1.2-5.9 1.2z"/></g></svg>